<?xml version="1.0" encoding="UTF-8" standalone="no"?>
<!-- Created with Inkscape (http://www.inkscape.org/) -->

<svg
   width="16"
   height="16"
   viewBox="0 0 16 16"
   version="1.1"
   id="svg1"
   xml:space="preserve"
   xmlns:xlink="http://www.w3.org/1999/xlink"
   xmlns="http://www.w3.org/2000/svg"
   xmlns:svg="http://www.w3.org/2000/svg"><defs
     id="defs1"><linearGradient
       id="linearGradient6"><stop
         style="stop-color:#656246;stop-opacity:1;"
         offset="0"
         id="stop6" /><stop
         style="stop-color:#1f2c1f;stop-opacity:1;"
         offset="0.63329446"
         id="stop9" /><stop
         style="stop-color:#0a110a;stop-opacity:0.99215686;"
         offset="0.81633282"
         id="stop7" /></linearGradient><linearGradient
       xlink:href="#linearGradient6"
       id="linearGradient9"
       x1="10.489305"
       y1="22.182455"
       x2="-3.5782506"
       y2="1.3264475"
       gradientUnits="userSpaceOnUse" /></defs><g
     id="layer1"><path
       d="M 11.703125,-0.02148438 C 11.484263,-0.02745809 11.28286,0.00481941 11.111328,0.05078125 3.5020817,2.0896734 -0.93773571,6.0226176 -6.7441406,9.7265625 -8.3224324,10.733365 -9.074059,12.241088 -9.1308594,13.871094 c -0.1050592,3.014897 2.1219663,6.220349 4.7949219,8.023437 2.8651422,1.932731 6.6975507,2.537553 9.6738281,-0.357422 C 10.213033,16.795148 13.824513,10.10831 15.214844,7.0839844 15.479669,6.5079223 15.79884,5.7608523 15.898438,5.3886719 c 0.08297,-0.3100332 0.177095,-0.7005276 0.105468,-1.1582032 -0.118551,-0.7575143 -0.771311,-1.48103 -1.74414,-1.4023437 -0.361942,0.029275 -0.680004,0.1798793 -0.935547,0.3535156 0.62406,-1.1830853 0.08701,-3.15650312 -1.621094,-3.20312498 z"
       fill="none"
       stroke="#000000"
       id="path6"
       style="fill:url(#linearGradient9);fill-opacity:1;stroke:none;stroke-width:3;stroke-linecap:round;stroke-dasharray:none;stroke-opacity:1" /><path
       d="M -5.9375076,10.991142 C 0,7.2035658 4.1838024,3.4603699 11.5,1.5 c 0.629805,-0.1687558 0.657225,0.7157907 0.486971,1 -0.774794,1.2933664 -1.55106,4.4777171 -1.336132,4.627533 0.214929,0.1498159 2.772855,-1.9417353 3.178239,-2.3957722 C 14.195537,4.3213205 14.726522,3.9610837 14.4485,5.0000001 14.170479,6.0389174 10.182531,14.732855 4.2929224,20.461569 -1.5966802,26.190286 -11.646168,14.632734 -5.9375076,10.991142 Z"
       fill="none"
       stroke="#000000"
       id="path1"
       style="stroke-width:1;stroke-linecap:round;stroke-dasharray:none;stroke:#dad7bb;stroke-opacity:1" /><path
       d="m 5.5,7.5 c -0.2394105,1.7287274 1.3758025,3.942277 2.9890213,3.942277"
       fill="none"
       stroke="#000000"
       stroke-width="0.355582"
       id="path2"
       style="stroke-width:1;stroke-linecap:round;stroke-dasharray:none;stroke:#dad7bb;stroke-opacity:1" /><path
       d="M 7.5181001,6.526266 C 7.3013543,7.2678794 8.127099,9.5 9.5,9.5"
       fill="none"
       stroke="#000000"
       stroke-width="0.355582"
       id="path3"
       style="stroke-width:1;stroke-linecap:round;stroke-dasharray:none;stroke:#dad7bb;stroke-opacity:1" /><path
       d="M 6.5,12.5 C 4.5,13.762178 4.2999508,14.716648 4.7471958,14.997983 5.1944408,15.279318 5.9232963,15.297738 7.9139795,13.5"
       fill="none"
       stroke="#000000"
       stroke-linecap="round"
       id="path4"
       style="stroke:#dad7bb;stroke-width:0.5;stroke-linecap:round;stroke-dasharray:none;stroke-opacity:1" /><ellipse
       style="fill:#b19c68;fill-opacity:1;stroke-width:0;stroke-linecap:round;stroke-linejoin:round"
       id="path5"
       cx="8.5"
       cy="4.5"
       rx="0.65421027"
       ry="0.65421033" /></g></svg>
